<svg width="31" height="48" viewBox="0 0 98 88" fill="none" xmlns="http://www.w3.org/2000/svg">
<path d="M98 44.0101C98 37.464 89.87 31.2602 77.4052 27.4131C80.2817 14.6029 79.0033 4.41108 73.3702 1.14809C72.0717 0.382696 70.5536 0.0201416 68.8956 0.0201416V4.51179C69.8145 4.51179 70.5536 4.69306 71.1729 5.03548C73.8895 6.60655 75.0681 12.5887 74.1492 20.2829C73.9295 22.1762 73.5699 24.1703 73.1305 26.2046C69.2152 25.2378 64.9405 24.4926 60.446 24.0092C57.7493 20.2829 54.9527 16.8991 52.1362 13.9382C58.6482 7.8352 64.7607 4.49165 68.9156 4.49165V0C63.4223 0 56.2311 3.94781 48.96 10.7961C41.689 3.9881 34.4978 0.0805679 29.0045 0.0805679V4.57221C33.1394 4.57221 39.2719 7.89563 45.7839 13.9583C42.9874 16.9192 40.1908 20.2829 37.534 24.0092C33.0196 24.4926 28.7448 25.2378 24.8296 26.2248C24.3702 24.2106 24.0306 22.2568 23.7909 20.3836C22.852 12.6894 24.0106 6.70726 26.7073 5.11604C27.3066 4.75349 28.0856 4.59236 29.0045 4.59236V0.10071C27.3265 0.10071 25.8084 0.463264 24.49 1.22866C18.8769 4.49165 17.6184 14.6633 20.5149 27.4333C8.09009 31.3005 0 37.4841 0 44.0101C0 50.5562 8.13004 56.7599 20.5948 60.607C17.7183 73.4173 18.9967 83.6091 24.6298 86.872C25.9283 87.6374 27.4464 88 29.1243 88C34.6176 88 41.8088 84.0522 49.0799 77.2039C56.351 84.0119 63.5422 87.9194 69.0355 87.9194C70.7134 87.9194 72.2316 87.5569 73.5499 86.7915C79.1631 83.5285 80.4215 73.3568 77.5251 60.5869C89.9099 56.7398 98 50.536 98 44.0101ZM71.9918 30.5754C71.2527 33.1737 70.3339 35.8526 69.2951 38.5315C68.4761 36.9201 67.6172 35.3088 66.6784 33.6974C65.7595 32.0861 64.7807 30.515 63.8019 28.9842C66.6384 29.4072 69.375 29.9309 71.9918 30.5754ZM62.843 52.0265C61.285 54.7457 59.6869 57.3239 58.0289 59.7208C55.0526 59.9826 52.0363 60.1236 49 60.1236C45.9837 60.1236 42.9674 59.9826 40.011 59.7409C38.353 57.344 36.735 54.786 35.1769 52.087C33.6588 49.4484 32.2805 46.7695 31.022 44.0705C32.2605 41.3715 33.6588 38.6725 35.157 36.0339C36.715 33.3147 38.3131 30.7366 39.9711 28.3397C42.9474 28.0778 45.9637 27.9368 49 27.9368C52.0163 27.9368 55.0326 28.0778 57.989 28.3195C59.647 30.7164 61.265 33.2744 62.8231 35.9735C64.3412 38.612 65.7195 41.2909 66.978 43.9899C65.7195 46.6889 64.3412 49.388 62.843 52.0265ZM69.2951 49.4081C70.3738 52.1071 71.2927 54.8061 72.0518 57.4246C69.435 58.0691 66.6784 58.613 63.8219 59.0359C64.8007 57.485 65.7795 55.8938 66.6983 54.2623C67.6172 52.6509 68.4761 51.0194 69.2951 49.4081ZM49.04 70.8995C47.1822 68.9659 45.3245 66.8107 43.4868 64.4541C45.2846 64.5347 47.1223 64.5951 48.98 64.5951C50.8577 64.5951 52.7155 64.5548 54.5332 64.4541C52.7354 66.8107 50.8777 68.9659 49.04 70.8995ZM34.1781 59.0359C31.3416 58.613 28.605 58.0893 25.9882 57.4447C26.7273 54.8464 27.6461 52.1675 28.6849 49.4887C29.5039 51.1 30.3628 52.7114 31.3017 54.3227C32.2405 55.9341 33.1993 57.5051 34.1781 59.0359ZM48.9401 17.1206C50.7978 19.0542 52.6555 21.2094 54.4933 23.566C52.6955 23.4855 50.8577 23.425 49 23.425C47.1223 23.425 45.2646 23.4653 43.4468 23.566C45.2446 21.2094 47.1023 19.0542 48.9401 17.1206ZM34.1582 28.9842C33.1794 30.5351 32.2006 32.1263 31.2817 33.7578C30.3628 35.3692 29.5039 36.9805 28.6849 38.5919C27.6062 35.8929 26.6873 33.1939 25.9283 30.5754C28.545 29.951 31.3017 29.4072 34.1582 28.9842ZM16.0803 54.2019C9.00897 51.1604 4.43457 47.1724 4.43457 44.0101C4.43457 40.8478 9.00897 36.8395 16.0803 33.8183C17.7982 33.073 19.6759 32.4083 21.6135 31.7839C22.7521 35.7317 24.2503 39.8407 26.108 44.0504C24.2703 48.2399 22.7921 52.3287 21.6735 56.2563C19.6959 55.6319 17.8182 54.9471 16.0803 54.2019ZM26.8272 82.9847C24.1105 81.4136 22.9319 75.4314 23.8508 67.7372C24.0705 65.8439 24.4301 63.8498 24.8696 61.8155C28.7848 62.7823 33.0595 63.5276 37.554 64.011C40.2507 67.7372 43.0473 71.1211 45.8638 74.0819C39.3518 80.1849 33.2393 83.5285 29.0844 83.5285C28.1855 83.5084 27.4264 83.3271 26.8272 82.9847ZM74.2091 67.6365C75.148 75.3307 73.9894 81.3129 71.2927 82.9041C70.6934 83.2666 69.9144 83.4278 68.9955 83.4278C64.8606 83.4278 58.7281 80.1044 52.2161 74.0417C55.0126 71.0808 57.8092 67.7171 60.466 63.9908C64.9804 63.5074 69.2552 62.7622 73.1704 61.7752C73.6298 63.8096 73.9894 65.7633 74.2091 67.6365ZM81.8997 54.2019C80.1818 54.9471 78.3041 55.6118 76.3665 56.2362C75.2279 52.2884 73.7297 48.1794 71.872 43.9698C73.7097 39.7803 75.1879 35.6915 76.3066 31.7638C78.2841 32.3882 80.1618 33.073 81.9197 33.8183C88.991 36.8597 93.5654 40.8478 93.5654 44.0101C93.5455 47.1724 88.9711 51.1806 81.8997 54.2019Z" fill="url(#paint0_linear)"/>
<path d="M48.98 53.0768C54.0217 53.0768 58.1089 48.9663 58.1089 43.8958C58.1089 38.8253 54.0217 34.7148 48.98 34.7148C43.9383 34.7148 39.8512 38.8253 39.8512 43.8958C39.8512 48.9663 43.9383 53.0768 48.98 53.0768Z" fill="url(#paint1_linear)"/>
<defs>
<linearGradient id="paint0_linear" x1="49" y1="0" x2="49" y2="88" gradientUnits="userSpaceOnUse">
<stop stop-color="#0085FF"/>
<stop offset="1" stop-color="#00FFC2"/>
</linearGradient>
<linearGradient id="paint1_linear" x1="49" y1="0" x2="49" y2="88" gradientUnits="userSpaceOnUse">
<stop stop-color="#0085FF"/>
<stop offset="1" stop-color="#00FFC2"/>
</linearGradient>
</defs>
</svg>
